<?xml version="1.0" encoding="UTF-8"?><svg id="Layer_1" xmlns="http://www.w3.org/2000/svg" xmlns:xlink="http://www.w3.org/1999/xlink" viewBox="0 0 154.59 90.92"><defs><linearGradient id="linear-gradient" x1="0" y1="44.59" x2="74.05" y2="44.59" gradientUnits="userSpaceOnUse"><stop offset="0" stop-color="#5d0cfa"/><stop offset=".14" stop-color="#5516fa"/><stop offset=".29" stop-color="#4d1efa"/><stop offset=".43" stop-color="#4423fa"/><stop offset=".57" stop-color="#3a28fa"/><stop offset=".71" stop-color="#2f2cfa"/><stop offset=".86" stop-color="#1f30fa"/><stop offset="1" stop-color="#0033fa"/></linearGradient></defs><path d="m0,0h39.41c20.44,0,31.98,10.09,31.98,29.19,0,14.07-7.17,23.62-19.24,27.34l21.9,32.65h-24.28l-19.51-30.92h-9.29v30.92H0V0Zm20.97,17.92v22.56h16.59c7.96,0,12.21-4.11,12.21-11.28s-4.25-11.28-12.21-11.28h-16.59Z" style="fill:#743ef9; stroke-width:0px;"/><path d="m0,0h39.41c20.44,0,31.98,10.09,31.98,29.19,0,14.07-7.17,23.62-19.24,27.34l21.9,32.65h-24.28l-19.51-30.92h-9.29v30.92H0V0Zm20.97,17.92v22.56h16.59c7.96,0,12.21-4.11,12.21-11.28s-4.25-11.28-12.21-11.28h-16.59Z" style="fill:url(#linear-gradient); stroke-width:0px;"/><path d="m121.56,1.49l-38.63.32.63,75.45,9.71,13.65,11.39-.1-.25-29.33,17.65-.15c20.97-.18,32.68-11.16,32.53-30.13-.16-19.12-12.06-29.9-33.03-29.73Zm-.85,41.42l-16.45.14-.19-22.97,16.45-.14c7.96-.07,12.37,4.01,12.44,11.45.06,7.3-4.28,11.45-12.25,11.51Z" style="fill:#130e01; stroke-width:0px;"/></svg>